<?xml version="1.0" encoding="utf-8"?>
<!-- Generator: Adobe Illustrator 27.3.1, SVG Export Plug-In . SVG Version: 6.00 Build 0)  -->
<svg version="1.1" id="_レイヤー_1" xmlns="http://www.w3.org/2000/svg" xmlns:xlink="http://www.w3.org/1999/xlink" x="0px"
	 y="0px" viewBox="0 0 838.7 100.6" style="enable-background:new 0 0 838.7 100.6;" xml:space="preserve">
<style type="text/css">
	.st0{fill:#0E6BB0;}
</style>
<g>
	<g>
		<path class="st0" d="M663,95.6c-3.5,0-6.3-2.8-6.3-6.3V68c0-12.7,5.2-23.6,13.8-29.2c8.9-5.8,21-5.8,30.2-0.1
			c2.9,1.8,3.8,5.7,2,8.7s-5.7,3.9-8.7,2c-5.9-3.7-12.8-2.6-16.7-0.1c-5,3.3-8,10.2-8,18.6v21.3C669.3,92.7,666.5,95.6,663,95.6
			L663,95.6z"/>
		<path class="st0" d="M610.8,95.6c-16.9,0-30.7-13.8-30.7-30.7s13.8-30.7,30.7-30.7s30.7,13.8,30.7,30.7S627.7,95.6,610.8,95.6z
			 M610.8,46.8c-10,0-18.1,8.1-18.1,18.1c0,10,8.1,18.1,18.1,18.1s18.1-8.1,18.1-18.1S620.8,46.8,610.8,46.8L610.8,46.8z"/>
		<path class="st0" d="M815.4,95.6c-7.3,0-15.1-2.9-21.8-8.2c-2.7-2.1-3.2-6.1-1-8.8s6.1-3.2,8.8-1c5.3,4.2,11.8,6.2,16.7,5.2
			c3.1-0.6,5.3-2.4,6.9-5.5c1.3-2.5,1.5-4.7,0.6-6.8c-1.7-3.9-6.7-7.3-13.6-9.2c-12.3-3.5-16.2-10.9-17.4-15
			c-1.9-6.4-0.2-13.5,4.3-18.6c8.2-9.3,23.9-8.6,32.6-1.9c2.7,2.1,3.2,6.1,1.1,8.8c-2.1,2.7-6.1,3.2-8.8,1.1
			c-3.9-3.1-12.1-3.5-15.4,0.3c-1.4,1.6-2.4,4.2-1.7,6.8c1.1,3.6,5.4,5.5,8.8,6.4c10.6,3,18.5,9,21.7,16.4
			c2.4,5.7,2.1,11.8-1.1,17.6c-3.4,6.4-8.7,10.5-15.5,11.9C818.9,95.4,817.1,95.6,815.4,95.6L815.4,95.6z"/>
		<path class="st0" d="M558.6,35.1c-3.5,0-6.3,2.8-6.3,6.3V68c0,8.3-6.7,15-15,15s-15-6.7-15-15V41.4c0-3.5-2.8-6.3-6.3-6.3
			s-6.3,2.8-6.3,6.3V68c0,8.3-6.7,15-15,15s-15-6.7-15-15V41.4c0-3.5-2.8-6.3-6.3-6.3s-6.3,2.8-6.3,6.3V68
			c0,15.2,12.4,27.6,27.6,27.6c8.6,0,16.2-3.9,21.3-10.1c5.1,6.1,12.7,10.1,21.3,10.1c15.2,0,27.6-12.4,27.6-27.6V41.4
			C564.8,37.9,562,35.1,558.6,35.1L558.6,35.1z"/>
		<g>
			<path class="st0" d="M725.3,95.6c-3.5,0-6.3-2.8-6.3-6.3v-78c0-3.5,2.8-6.3,6.3-6.3s6.3,2.8,6.3,6.3v78
				C731.5,92.7,728.7,95.6,725.3,95.6z"/>
			<path class="st0" d="M769.6,95.6c-1.6,0-3.2-0.6-4.4-1.8L739.5,68c-1.3-1.3-1.9-3-1.8-4.8c0.1-1.8,0.9-3.4,2.3-4.6L765.7,38
				c2.7-2.2,6.7-1.8,8.8,0.9c2.2,2.7,1.8,6.7-0.9,8.8l-20.3,16.3l20.8,20.8c2.5,2.5,2.5,6.4,0,8.9C772.8,95,771.2,95.6,769.6,95.6
				L769.6,95.6z"/>
		</g>
	</g>
	<g>
		<g>
			<path class="st0" d="M245.9,100.6c-3.5,0-6.3-2.8-6.3-6.3V72c0-10.1-8.3-18.4-18.4-18.4s-18.4,8.3-18.4,18.4v22.3
				c0,3.5-2.8,6.3-6.3,6.3s-6.3-2.8-6.3-6.3V72c0-17.1,13.9-31,31-31s31,13.9,31,31v22.3C252.2,97.8,249.4,100.6,245.9,100.6
				L245.9,100.6z"/>
			<path class="st0" d="M70.1,40.1c-8.6,0-16.2,3.9-21.3,10.1c-5.1-6.1-12.7-10.1-21.3-10.1C12.4,40.1,0,52.5,0,67.7v26.6
				c0,3.5,2.8,6.3,6.3,6.3s6.3-2.8,6.3-6.3V67.7c0-8.3,6.7-15,15-15s15,6.7,15,15v26.6c0,3.5,2.8,6.3,6.3,6.3s6.3-2.8,6.3-6.3V67.7
				c0-8.3,6.7-15,15-15s15,6.7,15,15v26.6c0,3.5,2.8,6.3,6.3,6.3s6.3-2.8,6.3-6.3V67.7C97.7,52.5,85.4,40.1,70.1,40.1L70.1,40.1z"/>
			<path class="st0" d="M144,100.6c-17.1,0-31-13.9-31-31V47.3c0-3.5,2.8-6.3,6.3-6.3s6.3,2.8,6.3,6.3v22.3
				c0,10.1,8.3,18.4,18.4,18.4s18.4-8.3,18.4-18.4V47.3c0-3.5,2.8-6.3,6.3-6.3c3.5,0,6.3,2.8,6.3,6.3v22.3
				C175,86.7,161.1,100.6,144,100.6L144,100.6z"/>
		</g>
		<g>
			<path class="st0" d="M292,14.9c-1.8-0.7-4.4-2.1-6-4.4c-1.6-2.3-2.9-5.3-3.6-9.1c-0.2-0.9-0.6-1.4-1.1-1.4s-1,0.5-1.1,1.4
				c-0.7,3.8-2,6.8-3.6,9.1c-1.7,2.3-4.2,3.7-6,4.4c-0.6,0.2-1,0.4-1,0.9s0.3,0.7,1,0.9c1.8,0.7,4.4,2.1,6,4.4
				c1.6,2.3,2.9,5.3,3.6,9.1c0.2,0.9,0.6,1.4,1.1,1.4s1-0.5,1.1-1.4c0.7-3.8,2-6.8,3.6-9.1c1.7-2.3,4.2-3.7,6-4.4
				c0.6-0.2,1-0.4,1-0.9S292.6,15.2,292,14.9z"/>
			<path class="st0" d="M281.2,41c-3.5,0-6.3,2.8-6.3,6.3v47c0,3.5,2.8,6.3,6.3,6.3s6.3-2.8,6.3-6.3v-47
				C287.5,43.8,284.7,41,281.2,41z"/>
		</g>
		<g>
			<g>
				<path class="st0" d="M316.5,100.4c-3.5,0-6.3-2.8-6.3-6.3v-78c0-3.5,2.8-6.3,6.3-6.3s6.3,2.8,6.3,6.3v78
					C322.8,97.6,320,100.4,316.5,100.4z"/>
				<path class="st0" d="M360.9,100.4c-1.6,0-3.2-0.6-4.5-1.8l-25.7-25.7c-1.3-1.3-1.9-3-1.8-4.8c0.1-1.8,0.9-3.4,2.3-4.6L357,42.8
					c2.7-2.2,6.7-1.8,8.8,0.9c2.2,2.7,1.8,6.7-1,8.8l-20.3,16.3l20.8,20.8c2.5,2.5,2.5,6.4,0,8.9
					C364.1,99.8,362.5,100.4,360.9,100.4L360.9,100.4z"/>
			</g>
			<path class="st0" d="M443,86.6c-0.1-0.1-2.9-2-3.8-6.1c-0.8-3.3-1.2-9.4-1.2-11.4c0-0.1,0-0.2,0-0.4
				c-1.2-15.2-13.9-27.2-29.4-27.2c-16.3,0-29.5,13.2-29.5,29.5s13.2,29.5,29.5,29.5c8.6,0,16.3-3.7,21.7-9.6c2.6,4,5.7,6,6.1,6.4
				c1,0.6,2.1,0.9,3.2,0.9c2.1,0,4.1-1,5.3-2.9C446.7,92.4,445.8,88.5,443,86.6L443,86.6z M408.4,87.9c-9.3,0-17-7.6-17-17
				s7.6-17,17-17s17,7.6,17,17S417.8,87.9,408.4,87.9z"/>
		</g>
	</g>
</g>
</svg>
